<svg width="123" height="28" viewBox="0 0 123 28" fill="none" xmlns="http://www.w3.org/2000/svg">
<path d="M0.24 24V0.959999H4.144L11.76 16.256L19.376 0.959999H23.28V24H19.216V10.24L12.528 24H10.992L4.304 10.24V24H0.24ZM37.6593 24.48C35.3553 24.48 33.3659 23.9787 31.6913 22.976C30.0273 21.9733 28.7419 20.5707 27.8353 18.768C26.9393 16.9653 26.4913 14.8693 26.4913 12.48C26.4913 10.0907 26.9393 7.99467 27.8353 6.192C28.7419 4.38933 30.0273 2.98667 31.6913 1.984C33.3659 0.981333 35.3553 0.48 37.6593 0.48C39.9633 0.48 41.9473 0.981333 43.6112 1.984C45.2859 2.98667 46.5713 4.38933 47.4673 6.192C48.3739 7.99467 48.8273 10.0907 48.8273 12.48C48.8273 14.8693 48.3739 16.9653 47.4673 18.768C46.5713 20.5707 45.2859 21.9733 43.6112 22.976C41.9473 23.9787 39.9633 24.48 37.6593 24.48ZM37.6593 20.384C39.1206 20.4053 40.3366 20.0907 41.3073 19.44C42.2779 18.7893 43.0033 17.8667 43.4833 16.672C43.9739 15.4773 44.2193 14.08 44.2193 12.48C44.2193 10.88 43.9739 9.49333 43.4833 8.32C43.0033 7.14667 42.2779 6.23467 41.3073 5.584C40.3366 4.93333 39.1206 4.59733 37.6593 4.576C36.1979 4.55467 34.9819 4.86933 34.0113 5.52C33.0406 6.17067 32.3099 7.09333 31.8193 8.288C31.3393 9.48267 31.0993 10.88 31.0993 12.48C31.0993 14.08 31.3393 15.4667 31.8193 16.64C32.3099 17.8133 33.0406 18.7253 34.0113 19.376C34.9819 20.0267 36.1979 20.3627 37.6593 20.384ZM56.0125 24L48.9725 0.959999H53.4525L59.2125 19.904L65.0685 0.959999H69.5485L62.5085 24H56.0125ZM70.7565 24V19.648H75.1085V24H70.7565Z" fill="#FF810D"/>
<path d="M82.4465 24.232C81.4172 24.232 80.5718 24.008 79.9105 23.56C79.2545 23.1067 78.8518 22.4747 78.7025 21.664L80.1585 21.432C80.2758 21.9013 80.5452 22.2747 80.9665 22.552C81.3878 22.824 81.9105 22.96 82.5345 22.96C83.1265 22.96 83.5905 22.8373 83.9265 22.592C84.2625 22.3467 84.4305 22.0133 84.4305 21.592C84.4305 21.3467 84.3745 21.1493 84.2625 21C84.1505 20.8453 83.9185 20.7013 83.5665 20.568C83.2198 20.4347 82.6945 20.2747 81.9905 20.088C81.2278 19.8853 80.6278 19.6747 80.1905 19.456C79.7532 19.2373 79.4412 18.984 79.2545 18.696C79.0678 18.408 78.9745 18.0587 78.9745 17.648C78.9745 17.1413 79.1132 16.6987 79.3905 16.32C79.6678 15.936 80.0545 15.64 80.5505 15.432C81.0518 15.224 81.6332 15.12 82.2945 15.12C82.9505 15.12 83.5372 15.224 84.0545 15.432C84.5718 15.64 84.9878 15.936 85.3025 16.32C85.6225 16.6987 85.8118 17.1413 85.8705 17.648L84.4145 17.912C84.3452 17.448 84.1212 17.0827 83.7425 16.816C83.3692 16.5493 82.8865 16.408 82.2945 16.392C81.7345 16.3707 81.2785 16.4693 80.9265 16.688C80.5798 16.9067 80.4065 17.2027 80.4065 17.576C80.4065 17.784 80.4705 17.9627 80.5985 18.112C80.7318 18.2613 80.9745 18.4027 81.3265 18.536C81.6838 18.6693 82.2012 18.8213 82.8785 18.992C83.6412 19.184 84.2412 19.3947 84.6785 19.624C85.1212 19.848 85.4358 20.1147 85.6225 20.424C85.8092 20.728 85.9025 21.104 85.9025 21.552C85.9025 22.384 85.5958 23.04 84.9825 23.52C84.3692 23.9947 83.5238 24.232 82.4465 24.232ZM91.6349 24.24C90.8242 24.24 90.1415 24.04 89.5869 23.64C89.0322 23.2347 88.6109 22.688 88.3229 22C88.0402 21.3067 87.8989 20.5307 87.8989 19.672C87.8989 18.8027 88.0402 18.024 88.3229 17.336C88.6109 16.648 89.0322 16.1067 89.5869 15.712C90.1469 15.3173 90.8322 15.12 91.6429 15.12C92.4429 15.12 93.1309 15.32 93.7069 15.72C94.2882 16.1147 94.7335 16.656 95.0429 17.344C95.3522 18.032 95.5069 18.808 95.5069 19.672C95.5069 20.536 95.3522 21.312 95.0429 22C94.7335 22.688 94.2882 23.2347 93.7069 23.64C93.1309 24.04 92.4402 24.24 91.6349 24.24ZM87.6589 27.84V15.36H88.9309V21.72H89.0909V27.84H87.6589ZM91.4589 22.936C92.0295 22.936 92.5015 22.792 92.8749 22.504C93.2482 22.216 93.5282 21.8267 93.7149 21.336C93.9015 20.84 93.9949 20.2853 93.9949 19.672C93.9949 19.064 93.9015 18.5147 93.7149 18.024C93.5335 17.5333 93.2509 17.144 92.8669 16.856C92.4882 16.568 92.0055 16.424 91.4189 16.424C90.8589 16.424 90.3949 16.5627 90.0269 16.84C89.6589 17.112 89.3842 17.4933 89.2029 17.984C89.0215 18.4693 88.9309 19.032 88.9309 19.672C88.9309 20.3013 89.0189 20.864 89.1949 21.36C89.3762 21.8507 89.6535 22.2373 90.0269 22.52C90.4002 22.7973 90.8775 22.936 91.4589 22.936ZM99.7166 24.24C99.0713 24.24 98.53 24.1227 98.0926 23.888C97.6606 23.648 97.3326 23.3333 97.1086 22.944C96.89 22.5547 96.7806 22.128 96.7806 21.664C96.7806 21.2107 96.866 20.8187 97.0366 20.488C97.2126 20.152 97.458 19.8747 97.7726 19.656C98.0873 19.432 98.4633 19.256 98.9006 19.128C99.3113 19.016 99.77 18.92 100.277 18.84C100.789 18.7547 101.306 18.6773 101.829 18.608C102.351 18.5387 102.839 18.472 103.293 18.408L102.781 18.704C102.797 17.936 102.642 17.368 102.317 17C101.997 16.632 101.442 16.448 100.653 16.448C100.13 16.448 99.6713 16.568 99.2766 16.808C98.8873 17.0427 98.6126 17.4267 98.4526 17.96L97.1006 17.552C97.3086 16.7947 97.7113 16.2 98.3086 15.768C98.906 15.336 99.6926 15.12 100.669 15.12C101.453 15.12 102.125 15.2613 102.685 15.544C103.25 15.8213 103.655 16.2427 103.901 16.808C104.023 17.0747 104.101 17.3653 104.133 17.68C104.165 17.9893 104.181 18.3147 104.181 18.656V24H102.917V21.928L103.213 22.12C102.887 22.8187 102.431 23.3467 101.845 23.704C101.263 24.0613 100.554 24.24 99.7166 24.24ZM99.9326 23.048C100.445 23.048 100.887 22.9573 101.261 22.776C101.639 22.5893 101.943 22.3467 102.173 22.048C102.402 21.744 102.551 21.4133 102.621 21.056C102.701 20.7893 102.743 20.4933 102.749 20.168C102.759 19.8373 102.765 19.584 102.765 19.408L103.261 19.624C102.797 19.688 102.341 19.7493 101.893 19.808C101.445 19.8667 101.021 19.9307 100.621 20C100.221 20.064 99.8606 20.1413 99.5406 20.232C99.306 20.3067 99.0846 20.4027 98.8766 20.52C98.674 20.6373 98.5086 20.7893 98.3806 20.976C98.258 21.1573 98.1966 21.384 98.1966 21.656C98.1966 21.8907 98.2553 22.1147 98.3726 22.328C98.4953 22.5413 98.682 22.7147 98.9326 22.848C99.1886 22.9813 99.522 23.048 99.9326 23.048ZM109.901 24.24C109.026 24.24 108.282 24.0453 107.669 23.656C107.061 23.2613 106.597 22.72 106.277 22.032C105.957 21.344 105.791 20.56 105.781 19.68C105.791 18.7787 105.959 17.9867 106.285 17.304C106.615 16.616 107.087 16.08 107.701 15.696C108.314 15.312 109.053 15.12 109.917 15.12C110.829 15.12 111.613 15.344 112.269 15.792C112.93 16.24 113.373 16.8533 113.597 17.632L112.189 18.056C112.007 17.5547 111.711 17.1653 111.301 16.888C110.895 16.6107 110.429 16.472 109.901 16.472C109.309 16.472 108.821 16.6107 108.437 16.888C108.053 17.16 107.767 17.5387 107.581 18.024C107.394 18.504 107.298 19.056 107.293 19.68C107.303 20.64 107.525 21.416 107.957 22.008C108.394 22.5947 109.042 22.888 109.901 22.888C110.466 22.888 110.935 22.76 111.309 22.504C111.682 22.2427 111.965 21.8667 112.157 21.376L113.597 21.752C113.298 22.5573 112.831 23.1733 112.197 23.6C111.562 24.0267 110.797 24.24 109.901 24.24ZM118.739 24.24C117.891 24.24 117.15 24.0533 116.515 23.68C115.886 23.3013 115.395 22.776 115.043 22.104C114.691 21.4267 114.515 20.6373 114.515 19.736C114.515 18.792 114.688 17.976 115.035 17.288C115.382 16.5947 115.864 16.0613 116.483 15.688C117.107 15.3093 117.838 15.12 118.675 15.12C119.544 15.12 120.283 15.32 120.891 15.72C121.504 16.12 121.963 16.6907 122.267 17.432C122.576 18.1733 122.71 19.056 122.667 20.08H121.227V19.568C121.211 18.5067 120.995 17.7147 120.579 17.192C120.163 16.664 119.544 16.4 118.723 16.4C117.843 16.4 117.174 16.6827 116.715 17.248C116.256 17.8133 116.027 18.624 116.027 19.68C116.027 20.6987 116.256 21.488 116.715 22.048C117.174 22.608 117.827 22.888 118.675 22.888C119.246 22.888 119.742 22.7573 120.163 22.496C120.584 22.2347 120.915 21.8587 121.155 21.368L122.523 21.84C122.187 22.6027 121.68 23.1947 121.003 23.616C120.331 24.032 119.576 24.24 118.739 24.24ZM115.547 20.08V18.936H121.931V20.08H115.547Z" fill="white"/>
</svg>
